<?xml version="1.0" encoding="iso-8859-1"?>
<!-- Generator: Adobe Illustrator 18.0.0, SVG Export Plug-In . SVG Version: 6.00 Build 0)  -->
<!DOCTYPE svg PUBLIC "-//W3C//DTD SVG 1.1//EN" "http://www.w3.org/Graphics/SVG/1.1/DTD/svg11.dtd">
<svg version="1.1" id="Capa_1" xmlns="http://www.w3.org/2000/svg" xmlns:xlink="http://www.w3.org/1999/xlink" x="0px" y="0px"
	 viewBox="0 0 325 325" style="enable-background:new 0 0 325 325;" xml:space="preserve">
<g>
	<path d="M280.45,281.667c0.164-0.276,0.307-0.565,0.425-0.868c0.015-0.037,0.027-0.074,0.041-0.111
		c0.113-0.307,0.205-0.623,0.268-0.951c0.006-0.031,0.009-0.063,0.014-0.094c0.059-0.336,0.095-0.678,0.095-1.029V6
		c0-3.313-2.686-6-6-6H49.708c-3.313,0-6,2.687-6,6v313c0,3.314,2.687,6,6,6h189.486c0.213,0,0.422-0.012,0.629-0.033
		c0.033-0.004,0.064-0.012,0.098-0.016c0.176-0.021,0.35-0.047,0.521-0.083c0.036-0.007,0.07-0.019,0.106-0.027
		c0.165-0.038,0.329-0.08,0.488-0.132c0.047-0.015,0.092-0.034,0.137-0.05c0.146-0.052,0.291-0.105,0.432-0.167
		c0.058-0.025,0.112-0.055,0.169-0.081c0.125-0.06,0.248-0.12,0.368-0.188c0.065-0.037,0.129-0.078,0.193-0.117
		c0.105-0.065,0.211-0.133,0.313-0.204c0.068-0.048,0.134-0.099,0.2-0.149c0.094-0.072,0.186-0.147,0.274-0.224
		c0.065-0.057,0.129-0.114,0.191-0.174c0.086-0.081,0.17-0.166,0.251-0.252c0.033-0.036,0.07-0.067,0.104-0.105l36.098-40.387
		c0.015-0.017,0.024-0.036,0.039-0.053c0.211-0.241,0.402-0.5,0.573-0.773C280.402,281.746,280.427,281.707,280.45,281.667z
		 M55.708,12h213.584v260.613h-30.098c-3.313,0-6,2.686-6,6V313H55.708V12z M261.882,284.613l-16.688,18.67v-18.67H261.882z"/>
	<path d="M76.778,77.625h171.443c3.314,0,6-2.687,6-6s-2.686-6-6-6H76.778c-3.313,0-6,2.687-6,6S73.465,77.625,76.778,77.625z"/>
	<path d="M76.778,138.209h171.443c3.314,0,6-2.686,6-6s-2.686-6-6-6H76.778c-3.313,0-6,2.686-6,6S73.465,138.209,76.778,138.209z"/>
	<path d="M76.778,198.795h171.443c3.314,0,6-2.687,6-6c0-3.314-2.686-6-6-6H76.778c-3.313,0-6,2.686-6,6
		C70.778,196.108,73.465,198.795,76.778,198.795z"/>
	<path d="M130.917,247.374H76.778c-3.313,0-6,2.687-6,6c0,3.314,2.687,6,6,6h54.139c3.313,0,6-2.686,6-6
		C136.917,250.061,134.23,247.374,130.917,247.374z"/>
</g>
<g>
</g>
<g>
</g>
<g>
</g>
<g>
</g>
<g>
</g>
<g>
</g>
<g>
</g>
<g>
</g>
<g>
</g>
<g>
</g>
<g>
</g>
<g>
</g>
<g>
</g>
<g>
</g>
<g>
</g>
</svg>
