<?xml version="1.0" encoding="iso-8859-1"?>
<!-- Generator: Adobe Illustrator 19.0.0, SVG Export Plug-In . SVG Version: 6.00 Build 0)  -->
<svg version="1.1" id="Capa_1" xmlns="http://www.w3.org/2000/svg" xmlns:xlink="http://www.w3.org/1999/xlink" x="0px" y="0px"
	 viewBox="0 0 428.108 428.108" style="enable-background:new 0 0 428.108 428.108;" xml:space="preserve">
<path id="XMLID_1137_" d="M236.503,387.867c0,3.866-3.134,7-7,7h-30.898c-3.866,0-7-3.134-7-7s3.134-7,7-7h30.898
	C233.369,380.867,236.503,384,236.503,387.867z M314.878,144.35c0,12.285-4.131,23.625-11.076,32.702
	c7.079,13.78,11.076,29.392,11.076,45.92c0,55.595-45.229,100.825-100.825,100.825c-55.595,0-100.825-45.23-100.825-100.825
	c0-54.853,44.028-99.615,98.601-100.802c8.473-18.695,27.312-31.733,49.137-31.733C290.693,90.437,314.878,114.623,314.878,144.35z
	 M221.054,144.35c0,22.008,17.904,39.913,39.912,39.913c9.671,0,18.551-3.458,25.466-9.202
	c-14.213-21.399-37.658-36.167-64.602-38.569C221.32,139.033,221.054,141.661,221.054,144.35z M300.878,222.972
	c0-12.638-2.715-24.655-7.591-35.498c-9.012,6.772-20.206,10.789-32.321,10.789c-29.728,0-53.913-24.186-53.913-53.913
	c0-2.707,0.201-5.368,0.588-7.97c-44.893,3.293-80.413,40.872-80.413,86.592c0,47.876,38.949,86.825,86.825,86.825
	S300.878,270.848,300.878,222.972z M300.878,144.35c0-22.008-17.904-39.913-39.912-39.913c-14.163,0-26.628,7.417-33.714,18.569
	c28.1,3.689,52.593,18.996,68.486,40.923C299.01,158.141,300.878,151.46,300.878,144.35z M252.177,355.057h-76.244
	c-3.866,0-7,3.134-7,7s3.134,7,7,7h76.244c3.866,0,7-3.134,7-7S256.043,355.057,252.177,355.057z M379.295,49.957v371.151
	c0,3.866-3.134,7-7,7H55.813c-3.866,0-7-3.134-7-7V49.957c0-3.866,3.134-7,7-7h68.925l86.236-42.243
	c1.943-0.951,4.216-0.951,6.159,0l86.236,42.243h68.925C376.161,42.957,379.295,46.09,379.295,49.957z M156.563,42.957h114.983
	l-57.492-28.162L156.563,42.957z M365.295,56.957h-63.404c-0.098,0.003-0.196,0.003-0.296,0H126.514
	c-0.099,0.002-0.198,0.002-0.296,0H62.813v357.151h302.482V56.957z"/>
<g>
</g>
<g>
</g>
<g>
</g>
<g>
</g>
<g>
</g>
<g>
</g>
<g>
</g>
<g>
</g>
<g>
</g>
<g>
</g>
<g>
</g>
<g>
</g>
<g>
</g>
<g>
</g>
<g>
</g>
</svg>
